<!DOCTYPE svg PUBLIC "-//W3C//DTD SVG 1.1//EN" "http://www.w3.org/Graphics/SVG/1.1/DTD/svg11.dtd">
<!-- Uploaded to: SVG Repo, www.svgrepo.com, Transformed by: SVG Repo Mixer Tools -->
<svg fill="#00e3ff" width="800px" height="800px" viewBox="0 0 24 24" id="exchange-euro" data-name="Flat Line" xmlns="http://www.w3.org/2000/svg" class="icon flat-line">
<g id="SVGRepo_bgCarrier" stroke-width="0"/>
<g id="SVGRepo_tracerCarrier" stroke-linecap="round" stroke-linejoin="round"/>
<g id="SVGRepo_iconCarrier">
<path id="primary" d="M5.3,7.64A8,8,0,0,1,20,12" style="fill: none; stroke: #00e3ff; stroke-linecap: round; stroke-linejoin: round; stroke-width: 2;"/>
<path id="primary-2" data-name="primary" d="M4,12a7.91,7.91,0,0,0,.35,2.35,8,8,0,0,0,14.35,2" style="fill: none; stroke: #00e3ff; stroke-linecap: round; stroke-linejoin: round; stroke-width: 2;"/>
<polyline id="primary-3" data-name="primary" points="19 11 20 12 21 11" style="fill: none; stroke: #00e3ff; stroke-linecap: round; stroke-linejoin: round; stroke-width: 2;"/>
<polyline id="primary-4" data-name="primary" points="5 13 4 12 3 13" style="fill: none; stroke: #00e3ff; stroke-linecap: round; stroke-linejoin: round; stroke-width: 2;"/>
<line id="primary-5" data-name="primary" x1="9" y1="12" x2="11" y2="12" style="fill: none; stroke: #00e3ff; stroke-linecap: round; stroke-linejoin: round; stroke-width: 2;"/>
<path id="primary-6" data-name="primary" d="M14,9.77A3,3,0,0,0,12,9h0a3,3,0,0,0-3,3H9a3,3,0,0,0,3,3h0a3,3,0,0,0,2-.77" style="fill: none; stroke: #00e3ff; stroke-linecap: round; stroke-linejoin: round; stroke-width: 2;"/>
</g>
</svg>